<svg version="1.1" id="Layer_1" xmlns="http://www.w3.org/2000/svg" xmlns:xlink="http://www.w3.org/1999/xlink" x="0px" y="0px"
	 width="100%" viewBox="0 0 288 272" enable-background="new 0 0 288 272" xml:space="preserve" overflow="hidden">
<style>
  .light { fill: #000000; }
  .dark { fill: #ffffff; }

  @media (prefers-color-scheme: dark) {
    .light { display: none; }
  }

  @media (prefers-color-scheme: light) {
    .dark { display: none; }
  }
</style>

<mask id="cutout-mask"
      maskUnits="userSpaceOnUse"
      maskContentUnits="userSpaceOnUse"
	  mask-type="luminance"
      x="0" y="0"
      width="288" height="272">
<rect x="0" y="0" width="288" height="272" fill="white"/>
<path fill="#000000" opacity="1.000000" stroke="none" 
	d="
M202.000000,273.000000 
	C135.031555,273.000000 68.063103,273.000000 1.047329,273.000000 
	C1.047329,182.407608 1.047329,91.815178 1.047329,1.111377 
	C96.880432,1.111377 192.761032,1.111377 289.000000,1.111377 
	C289.000000,56.687050 289.000000,112.374863 288.745850,168.272751 
	C287.181549,165.663910 286.455170,162.650330 284.171173,160.212723 
	C275.804596,151.283508 267.406433,142.409378 258.212830,134.301758 
	C248.778793,125.982140 237.824066,124.664688 227.828140,132.266510 
	C217.240646,140.318253 208.291351,150.281738 199.524780,160.265320 
	C195.492218,164.857697 194.225037,170.634689 194.286957,176.969116 
	C194.535767,202.423843 194.583069,227.884979 194.263351,253.338211 
	C194.164368,261.217743 196.494125,267.596069 202.000000,273.000000 
M139.390121,41.621998 
	C150.467651,41.832108 161.201233,44.176743 171.380508,48.250568 
	C185.252060,53.802078 196.982437,62.407597 207.144913,73.642281 
	C218.654663,86.366417 225.613770,100.993744 229.438599,117.421288 
	C229.914658,119.465942 230.539261,121.553360 233.215988,121.060753 
	C237.201004,120.327370 241.193787,120.695076 245.178955,120.647606 
	C249.118713,120.600670 249.958649,118.603081 249.380417,115.118401 
	C245.445267,91.403427 234.578003,71.116989 217.808685,54.255543 
	C207.002640,43.390118 194.388855,34.781803 179.750153,29.316465 
	C159.468536,21.744345 138.777008,18.273584 117.197815,21.332544 
	C89.258575,25.293070 65.347816,37.002907 46.108387,57.945953 
	C20.941744,85.341049 11.773417,117.805191 16.711098,154.108902 
	C20.168619,179.529877 31.817463,201.528336 49.972553,219.649017 
	C72.174309,241.808701 99.782906,252.061447 130.680283,253.500122 
	C148.031204,254.307999 164.518570,249.711700 180.369293,242.743851 
	C185.502136,240.487488 188.457748,237.293991 187.693604,231.275742 
	C187.297943,228.159607 187.660004,224.951492 187.603806,221.786285 
	C187.575134,220.171051 188.061142,218.249817 186.274490,217.261673 
	C184.423035,216.237656 183.085037,217.883499 181.816971,218.737518 
	C168.438583,227.747574 153.264023,231.296890 137.588425,232.236877 
	C120.086716,233.286362 103.239120,229.849716 87.481331,221.759262 
	C62.732433,209.052551 47.126400,189.081268 39.552326,162.441116 
	C36.495831,151.690567 36.648708,140.793503 36.590561,129.826538 
	C36.522938,117.072296 39.774590,104.907578 45.344868,93.836555 
	C54.589596,75.462509 68.741043,61.219036 87.250191,51.882641 
	C103.288490,43.792606 120.526840,40.890499 139.390121,41.621998 
M210.224777,111.263977 
	C209.262222,108.439873 208.596069,105.469513 207.286896,102.816444 
	C200.904602,89.882454 191.560104,80.227531 177.035507,76.748337 
	C167.175522,74.386505 158.445160,81.262543 158.396484,91.284340 
	C158.356049,99.612640 158.405884,107.941360 158.370285,116.269699 
	C158.354233,120.023903 159.988541,122.106171 163.845200,122.665962 
	C169.778152,123.527115 175.180786,126.193314 179.230682,130.344528 
	C185.262970,136.527725 187.086411,141.693970 178.301407,147.365417 
	C167.443787,154.374908 155.199219,157.320938 142.514313,158.358414 
	C126.049767,159.705002 109.996872,157.339279 94.710289,151.101425 
	C89.275536,148.883698 82.556671,146.121735 82.255966,139.435959 
	C81.984604,133.402832 86.853882,129.140915 92.328445,126.268738 
	C96.039886,124.321564 99.931808,122.927460 103.951004,121.891151 
	C106.432587,121.251297 107.628174,119.913933 107.613663,117.338432 
	C107.567680,109.177025 108.068817,100.978912 107.463600,92.861710 
	C106.410271,78.734360 96.008850,72.448074 83.319206,78.492790 
	C65.941795,86.770515 55.999573,100.518364 55.401405,120.196915 
	C54.868061,137.742981 63.658302,150.402451 77.092575,160.436615 
	C80.403999,162.909943 83.780632,165.595810 87.559624,167.092010 
	C105.088631,174.032181 122.931328,178.722656 142.252335,176.851883 
	C155.407471,175.578125 168.227127,172.798019 179.341034,166.400894 
	C199.814499,154.616440 214.465302,138.391068 210.224777,111.263977 
M164.517853,183.316299 
	C121.518524,192.776367 82.811523,188.099060 54.573166,149.473618 
	C52.894173,151.421295 53.213940,153.358597 53.545002,155.072998 
	C55.662331,166.037537 60.273392,175.406616 68.488052,183.520676 
	C85.856071,200.675995 107.508728,206.035568 130.585312,207.497742 
	C146.243011,208.489853 161.162506,204.573212 175.522369,198.241806 
	C187.124313,193.126373 188.276169,191.723175 187.605347,179.392273 
	C187.355225,174.794693 185.364944,173.433945 181.656570,175.895218 
	C176.579300,179.265030 171.021652,181.310013 164.517853,183.316299 
M142.071747,141.608719 
	C145.143539,138.964233 145.625076,135.403427 145.622574,131.655228 
	C145.614609,119.681007 145.771393,107.704300 145.572632,95.733398 
	C145.433456,87.351166 146.078857,79.633308 153.687027,74.013176 
	C156.952393,71.601059 156.089935,69.345169 151.937988,68.396767 
	C148.403748,67.589478 144.780548,67.043121 141.166595,66.738350 
	C131.871536,65.954514 122.585640,66.072891 113.504509,68.494591 
	C110.986694,69.166031 108.034836,70.770203 111.672676,73.486588 
	C119.108650,79.039078 120.249039,86.895515 120.331009,95.183228 
	C120.455994,107.821495 120.415375,120.462013 120.357872,133.101181 
	C120.334740,138.185638 122.646812,141.725937 127.224449,143.596176 
	C132.160233,145.612701 136.983231,144.990128 142.071747,141.608719 
z"/>
<path fill="#000000" opacity="1.000000" stroke="none" 
	d="
M282.497894,273.000000 
	C284.115753,269.426239 286.231537,265.852509 288.673645,262.139404 
	C289.000000,265.562775 289.000000,269.125580 289.000000,273.000000 
	C287.003693,273.000000 284.999756,273.000000 282.497894,273.000000 
z"/>
<path fill="#000000" opacity="1.000000" stroke="none" 
	d="
M251.997345,205.386780 
	C241.196548,205.385284 230.895203,205.400787 220.594070,205.361740 
	C219.116592,205.356155 217.570633,205.314011 216.179214,204.887756 
	C214.013626,204.224365 213.014786,202.364899 213.250229,200.248383 
	C213.492050,198.074631 214.857178,196.673248 217.290894,196.674484 
	C233.739227,196.682831 250.187744,196.637451 266.635712,196.715027 
	C269.055481,196.726425 271.284027,197.462357 271.292358,200.654922 
	C271.300110,203.615341 269.389435,205.000290 266.942200,205.161072 
	C262.142883,205.476379 257.313690,205.337326 251.997345,205.386780 
z"/>
<path fill="#000000" opacity="1.000000" stroke="none" 
	d="
M231.002686,221.627045 
	C242.463379,221.628708 253.424545,221.640778 264.385681,221.625504 
	C267.727600,221.620850 271.251984,221.873016 271.110809,226.227432 
	C270.981934,230.202805 267.618256,230.394943 264.455322,230.390442 
	C249.674469,230.369431 234.893524,230.399399 220.112610,230.397995 
	C218.952469,230.397888 217.776718,230.397919 216.635422,230.221725 
	C214.272202,229.856949 213.166916,228.120956 213.228958,226.005066 
	C213.295197,223.745636 214.231506,221.723877 217.051804,221.695328 
	C221.535355,221.649933 226.019333,221.647537 231.002686,221.627045 
z"/>
<path fill="#000000" opacity="1.000000" stroke="none" 
	d="
M253.516724,163.153442 
	C250.234619,171.239807 244.371048,174.309128 237.260406,171.988190 
	C231.310562,170.046112 228.287949,163.878311 229.909378,156.503830 
	C231.073532,151.209045 235.553528,149.410843 239.999115,148.045517 
	C243.672089,146.917496 249.810059,150.203888 252.060547,154.362289 
	C253.436859,156.905411 255.181915,159.592422 253.516724,163.153442 
z"/>
<path fill="#000000" opacity="1.000000" stroke="none" 
	d="
M245.868912,246.645218 
	C247.510010,246.658783 248.673508,246.625183 249.830521,246.696579 
	C252.455078,246.858551 255.144531,247.417450 255.101318,250.652054 
	C255.058838,253.834152 252.662262,255.211197 249.690018,255.282547 
	C244.718063,255.401901 239.742279,255.377914 234.768082,255.381927 
	C229.462067,255.386200 224.155563,255.390121 218.850189,255.321548 
	C215.903244,255.283463 213.663574,254.414932 213.679947,250.793732 
	C213.697083,247.003036 216.107986,246.615723 219.024551,246.626419 
	C227.812393,246.658630 236.600418,246.642822 245.868912,246.645218 
z"/>
<path fill="#000000" opacity="1.000000" stroke="none" 
	d="
M90.359070,102.180161 
	C91.185165,108.565483 90.003410,113.242180 83.692719,115.791527 
	C79.400688,117.525383 77.303368,122.244659 73.547142,125.102341 
	C69.522476,113.673950 78.927818,99.381744 89.236404,97.181908 
	C90.843773,98.360580 90.125771,100.166374 90.359070,102.180161 
z"/>
<path fill="#000000" opacity="1.000000" stroke="none" 
	d="
M192.871887,115.796021 
	C193.143768,118.832916 193.264481,121.483200 193.301270,124.134644 
	C193.309601,124.735306 193.026657,125.340012 192.578964,127.152847 
	C188.733765,119.828156 183.186310,115.637970 176.881958,112.328400 
	C175.420425,111.561150 175.537567,110.203026 175.549927,108.856018 
	C175.584641,105.074776 175.980988,101.284180 174.891052,97.565765 
	C182.329926,96.703743 189.042252,103.607368 192.871887,115.796021 
z"/>
</mask>
  <!-- Background rectangle with the mask applied -->
<rect
  x="2"
  y="2"
  width="288"
  height="272"
  fill="#000"
  class="dark"
  mask="url(#cutout-mask)"/>
<rect
  x="2"
  y="2"
  width="288"
  height="272"
  fill="#fff"
  class="light"
  mask="url(#cutout-mask)"/>
</svg>
